<svg xmlns="http://www.w3.org/2000/svg" viewBox="0 0 1000 186" width="1000" height="186" role="img" aria-label="GUARDRAILS FIRST. Rate limiting, validation and row level security before features.. DEGRADE, DO NOT DIE. Every external call has a fallback. Clone it, it runs with zero keys.. DECIDE BEFORE CODING. The architectural choice gets made, and written down, first."><defs><linearGradient id="bg" x1="0" y1="0" x2="0" y2="1"><stop offset="0%" stop-color="#0d0d0e"/><stop offset="100%" stop-color="#08080a"/></linearGradient><pattern id="mesh" width="22" height="22" patternUnits="userSpaceOnUse"><path d="M22 0H0V22" fill="none" stroke="#24242a" stroke-width="1"/></pattern></defs><style>.tick{animation:tk 5s ease-in-out infinite}@keyframes tk{0%,100%{opacity:.35}18%{opacity:1}40%{opacity:.35}}.dash{stroke-dasharray:2 5;animation:d 2s linear infinite}@keyframes d{to{stroke-dashoffset:-7}}.sweep{animation:sw 9s ease-in-out infinite}@keyframes sw{0%,100%{opacity:.18}50%{opacity:.5}}@media (prefers-reduced-motion:reduce){*{animation:none!important}}</style>
<rect width="1000" height="186" fill="url(#bg)"/>
<rect width="1000" height="186" fill="url(#mesh)" opacity=".5"/>
<rect x="40" y="20" width="293" height="132" fill="#111113" fill-opacity=".82" stroke="#24242a" stroke-width="1"/>
<path d="M40 20 h10 M40 20 v10" stroke="#c08a3e" stroke-width="1.4" fill="none" stroke-opacity=".8"/>
<path d="M333 20 h-10 M333 20 v10" stroke="#c08a3e" stroke-width="1.4" fill="none" stroke-opacity=".8"/>
<path d="M40 152 h10 M40 152 v-10" stroke="#c08a3e" stroke-width="1.4" fill="none" stroke-opacity=".8"/>
<path d="M333 152 h-10 M333 152 v-10" stroke="#c08a3e" stroke-width="1.4" fill="none" stroke-opacity=".8"/>
<rect class="tick" style="animation-delay:0.0s" x="40" y="20" width="293" height="3" fill="#c08a3e"/>
<text x="62" y="60" font-family="ui-monospace, SFMono-Regular, Menlo, Consolas, monospace" font-size="10.5" fill="#c08a3e" font-weight="700">01</text>
<text x="62" y="92" font-family="Segoe UI, ui-sans-serif, -apple-system, Helvetica, Arial, sans-serif" font-size="15" font-weight="700" fill="#ece9e4">GUARDRAILS FIRST</text>
<text x="62" y="116" font-family="ui-monospace, SFMono-Regular, Menlo, Consolas, monospace" font-size="11" fill="#9a958d">Rate limiting, validation and row</text>
<text x="62" y="132" font-family="ui-monospace, SFMono-Regular, Menlo, Consolas, monospace" font-size="11" fill="#9a958d">level security before features.</text>
<rect x="353" y="20" width="293" height="132" fill="#111113" fill-opacity=".82" stroke="#24242a" stroke-width="1"/>
<path d="M353 20 h10 M353 20 v10" stroke="#c08a3e" stroke-width="1.4" fill="none" stroke-opacity=".8"/>
<path d="M646 20 h-10 M646 20 v10" stroke="#c08a3e" stroke-width="1.4" fill="none" stroke-opacity=".8"/>
<path d="M353 152 h10 M353 152 v-10" stroke="#c08a3e" stroke-width="1.4" fill="none" stroke-opacity=".8"/>
<path d="M646 152 h-10 M646 152 v-10" stroke="#c08a3e" stroke-width="1.4" fill="none" stroke-opacity=".8"/>
<rect class="tick" style="animation-delay:0.7s" x="353" y="20" width="293" height="3" fill="#c08a3e"/>
<text x="375" y="60" font-family="ui-monospace, SFMono-Regular, Menlo, Consolas, monospace" font-size="10.5" fill="#c08a3e" font-weight="700">02</text>
<text x="375" y="92" font-family="Segoe UI, ui-sans-serif, -apple-system, Helvetica, Arial, sans-serif" font-size="15" font-weight="700" fill="#ece9e4">DEGRADE, DO NOT DIE</text>
<text x="375" y="116" font-family="ui-monospace, SFMono-Regular, Menlo, Consolas, monospace" font-size="11" fill="#9a958d">Every external call has a fallback.</text>
<text x="375" y="132" font-family="ui-monospace, SFMono-Regular, Menlo, Consolas, monospace" font-size="11" fill="#9a958d">Clone it, it runs with zero keys.</text>
<rect x="666" y="20" width="293" height="132" fill="#111113" fill-opacity=".82" stroke="#24242a" stroke-width="1"/>
<path d="M666 20 h10 M666 20 v10" stroke="#c08a3e" stroke-width="1.4" fill="none" stroke-opacity=".8"/>
<path d="M959 20 h-10 M959 20 v10" stroke="#c08a3e" stroke-width="1.4" fill="none" stroke-opacity=".8"/>
<path d="M666 152 h10 M666 152 v-10" stroke="#c08a3e" stroke-width="1.4" fill="none" stroke-opacity=".8"/>
<path d="M959 152 h-10 M959 152 v-10" stroke="#c08a3e" stroke-width="1.4" fill="none" stroke-opacity=".8"/>
<rect class="tick" style="animation-delay:1.4s" x="666" y="20" width="293" height="3" fill="#c08a3e"/>
<text x="688" y="60" font-family="ui-monospace, SFMono-Regular, Menlo, Consolas, monospace" font-size="10.5" fill="#c08a3e" font-weight="700">03</text>
<text x="688" y="92" font-family="Segoe UI, ui-sans-serif, -apple-system, Helvetica, Arial, sans-serif" font-size="15" font-weight="700" fill="#ece9e4">DECIDE BEFORE CODING</text>
<text x="688" y="116" font-family="ui-monospace, SFMono-Regular, Menlo, Consolas, monospace" font-size="11" fill="#9a958d">The architectural choice gets made,</text>
<text x="688" y="132" font-family="ui-monospace, SFMono-Regular, Menlo, Consolas, monospace" font-size="11" fill="#9a958d">and written down, first.</text>
</svg>
