<svg xmlns="http://www.w3.org/2000/svg" viewBox="0 0 1000 306" width="1000" height="306" role="img" aria-label="38 public repositories, 26 stars, 9 languages, last shipped 20 Aug 2026"><defs><linearGradient id="sky" x1="0" y1="0" x2="0" y2="1"><stop offset="0%" stop-color="#0b0618"/><stop offset="100%" stop-color="#07040f"/></linearGradient><filter id="gl" x="-40%" y="-40%" width="180%" height="180%"><feGaussianBlur stdDeviation="3.2" result="b"/><feMerge><feMergeNode in="b"/><feMergeNode in="SourceGraphic"/></feMerge></filter><filter id="gs" x="-60%" y="-60%" width="220%" height="220%"><feGaussianBlur stdDeviation="6" result="b"/><feMerge><feMergeNode in="b"/><feMergeNode in="b"/><feMergeNode in="SourceGraphic"/></feMerge></filter></defs><style>.fl{animation:fl 3.4s ease-in-out infinite}@keyframes fl{0%,100%{opacity:1}47%{opacity:.68}53%{opacity:1}}.sc{animation:sc 6s linear infinite}@keyframes sc{to{transform:translateY(760px)}}.dash{stroke-dasharray:3 6;animation:d 1.5s linear infinite}@keyframes d{to{stroke-dashoffset:-9}}@media (prefers-reduced-motion:reduce){*{animation:none!important}}</style>
<rect width="1000" height="306" fill="url(#sky)"/>
<rect x="40" y="20" width="215" height="112" fill="#0d0a1c" fill-opacity=".72" stroke="#22e3ff" stroke-width="1.5" stroke-opacity=".85"/>
<path d="M40 20 h10 M40 20 v10" stroke="#22e3ff" stroke-width="2" fill="none" stroke-opacity=".9"/>
<path d="M255 20 h-10 M255 20 v10" stroke="#22e3ff" stroke-width="2" fill="none" stroke-opacity=".9"/>
<path d="M40 132 h10 M40 132 v-10" stroke="#22e3ff" stroke-width="2" fill="none" stroke-opacity=".9"/>
<path d="M255 132 h-10 M255 132 v-10" stroke="#22e3ff" stroke-width="2" fill="none" stroke-opacity=".9"/>
<text x="62" y="88" font-family="Segoe UI, ui-sans-serif, -apple-system, Helvetica, Arial, sans-serif" font-size="40" font-weight="800" fill="#22e3ff" letter-spacing="-1.4" filter="url(#gl)">38</text>
<text x="62" y="110" font-family="ui-monospace, SFMono-Regular, Menlo, Consolas, monospace" font-size="9.4" fill="#5f6684" letter-spacing="1.7">PUBLIC REPOS</text>
<rect x="275" y="20" width="215" height="112" fill="#0d0a1c" fill-opacity=".72" stroke="#ff2e88" stroke-width="1.5" stroke-opacity=".85"/>
<path d="M275 20 h10 M275 20 v10" stroke="#ff2e88" stroke-width="2" fill="none" stroke-opacity=".9"/>
<path d="M490 20 h-10 M490 20 v10" stroke="#ff2e88" stroke-width="2" fill="none" stroke-opacity=".9"/>
<path d="M275 132 h10 M275 132 v-10" stroke="#ff2e88" stroke-width="2" fill="none" stroke-opacity=".9"/>
<path d="M490 132 h-10 M490 132 v-10" stroke="#ff2e88" stroke-width="2" fill="none" stroke-opacity=".9"/>
<text x="297" y="88" font-family="Segoe UI, ui-sans-serif, -apple-system, Helvetica, Arial, sans-serif" font-size="40" font-weight="800" fill="#ff2e88" letter-spacing="-1.4" filter="url(#gl)">26</text>
<text x="297" y="110" font-family="ui-monospace, SFMono-Regular, Menlo, Consolas, monospace" font-size="9.4" fill="#5f6684" letter-spacing="1.7">STARS EARNED</text>
<rect x="510" y="20" width="215" height="112" fill="#0d0a1c" fill-opacity=".72" stroke="#a06bff" stroke-width="1.5" stroke-opacity=".85"/>
<path d="M510 20 h10 M510 20 v10" stroke="#a06bff" stroke-width="2" fill="none" stroke-opacity=".9"/>
<path d="M725 20 h-10 M725 20 v10" stroke="#a06bff" stroke-width="2" fill="none" stroke-opacity=".9"/>
<path d="M510 132 h10 M510 132 v-10" stroke="#a06bff" stroke-width="2" fill="none" stroke-opacity=".9"/>
<path d="M725 132 h-10 M725 132 v-10" stroke="#a06bff" stroke-width="2" fill="none" stroke-opacity=".9"/>
<text x="532" y="88" font-family="Segoe UI, ui-sans-serif, -apple-system, Helvetica, Arial, sans-serif" font-size="40" font-weight="800" fill="#a06bff" letter-spacing="-1.4" filter="url(#gl)">9</text>
<text x="532" y="110" font-family="ui-monospace, SFMono-Regular, Menlo, Consolas, monospace" font-size="9.4" fill="#5f6684" letter-spacing="1.7">LANGUAGES</text>
<rect x="745" y="20" width="215" height="112" fill="#0d0a1c" fill-opacity=".72" stroke="#22e3ff" stroke-width="1.5" stroke-opacity=".85"/>
<path d="M745 20 h10 M745 20 v10" stroke="#22e3ff" stroke-width="2" fill="none" stroke-opacity=".9"/>
<path d="M960 20 h-10 M960 20 v10" stroke="#22e3ff" stroke-width="2" fill="none" stroke-opacity=".9"/>
<path d="M745 132 h10 M745 132 v-10" stroke="#22e3ff" stroke-width="2" fill="none" stroke-opacity=".9"/>
<path d="M960 132 h-10 M960 132 v-10" stroke="#22e3ff" stroke-width="2" fill="none" stroke-opacity=".9"/>
<text x="767" y="88" font-family="Segoe UI, ui-sans-serif, -apple-system, Helvetica, Arial, sans-serif" font-size="24" font-weight="800" fill="#22e3ff" letter-spacing="-1.4" filter="url(#gl)">20 Aug 2026</text>
<text x="767" y="110" font-family="ui-monospace, SFMono-Regular, Menlo, Consolas, monospace" font-size="9.4" fill="#5f6684" letter-spacing="1.7">LAST SHIPPED</text>
<rect x="40" y="164" width="920" height="112" fill="#0d0a1c" fill-opacity=".72" stroke="#22e3ff" stroke-width="1.5" stroke-opacity=".85"/>
<path d="M40 164 h14 M40 164 v14" stroke="#ff2e88" stroke-width="2" fill="none" stroke-opacity=".9"/>
<path d="M960 164 h-14 M960 164 v14" stroke="#ff2e88" stroke-width="2" fill="none" stroke-opacity=".9"/>
<path d="M40 276 h14 M40 276 v-14" stroke="#ff2e88" stroke-width="2" fill="none" stroke-opacity=".9"/>
<path d="M960 276 h-14 M960 276 v-14" stroke="#ff2e88" stroke-width="2" fill="none" stroke-opacity=".9"/>
<text x="70" y="196" font-family="ui-monospace, SFMono-Regular, Menlo, Consolas, monospace" font-size="9.6" fill="#22e3ff" letter-spacing="1.9">WHAT THE REPOSITORIES ARE WRITTEN IN</text>
<rect x="70.0" y="210" width="357.6" height="14" fill="#22e3ff" filter="url(#gl)"/>
<rect x="430.6" y="210" width="191.2" height="14" fill="#ff2e88" filter="url(#gl)"/>
<rect x="624.8" y="210" width="80.2" height="14" fill="#a06bff" filter="url(#gl)"/>
<rect x="708.1" y="210" width="80.2" height="14" fill="#4de3a0" filter="url(#gl)"/>
<rect x="791.3" y="210" width="24.7" height="14" fill="#ffd166" filter="url(#gl)"/>
<rect x="819.0" y="210" width="24.7" height="14" fill="#ff7b54" filter="url(#gl)"/>
<rect x="846.8" y="210" width="80.2" height="14" fill="#5f6684" filter="url(#gl)"/>
<rect x="70.0" y="236" width="9" height="9" fill="#22e3ff"/>
<text x="85.0" y="245" font-family="ui-monospace, SFMono-Regular, Menlo, Consolas, monospace" font-size="10.5" fill="#9aa4c4">Python 13</text>
<rect x="156.8" y="236" width="9" height="9" fill="#ff2e88"/>
<text x="171.8" y="245" font-family="ui-monospace, SFMono-Regular, Menlo, Consolas, monospace" font-size="10.5" fill="#9aa4c4">HTML 7</text>
<rect x="224.7" y="236" width="9" height="9" fill="#a06bff"/>
<text x="239.7" y="245" font-family="ui-monospace, SFMono-Regular, Menlo, Consolas, monospace" font-size="10.5" fill="#9aa4c4">JavaScript 3</text>
<rect x="330.4" y="236" width="9" height="9" fill="#4de3a0"/>
<text x="345.4" y="245" font-family="ui-monospace, SFMono-Regular, Menlo, Consolas, monospace" font-size="10.5" fill="#9aa4c4">C++ 3</text>
<rect x="391.9" y="236" width="9" height="9" fill="#ffd166"/>
<text x="406.9" y="245" font-family="ui-monospace, SFMono-Regular, Menlo, Consolas, monospace" font-size="10.5" fill="#9aa4c4">TypeScript 1</text>
<rect x="497.7" y="236" width="9" height="9" fill="#ff7b54"/>
<text x="512.7" y="245" font-family="ui-monospace, SFMono-Regular, Menlo, Consolas, monospace" font-size="10.5" fill="#9aa4c4">PHP 1</text>
<rect x="559.2" y="236" width="9" height="9" fill="#5f6684"/>
<text x="574.2" y="245" font-family="ui-monospace, SFMono-Regular, Menlo, Consolas, monospace" font-size="10.5" fill="#9aa4c4">Other 3</text>
<rect class="sc" x="0" y="-70" width="1000" height="70" fill="#22e3ff" opacity=".045"/>
</svg>
