<svg xmlns="http://www.w3.org/2000/svg" viewBox="0 0 1000 300" width="1000" height="300" role="img" aria-label="38 public repositories, 26 stars, 9 languages, last shipped 22 Aug 2026"><defs><linearGradient id="bg" x1="0" y1="0" x2="0" y2="1"><stop offset="0%" stop-color="#0b0e0d"/><stop offset="100%" stop-color="#070908"/></linearGradient><linearGradient id="spine" x1="0" y1="0" x2="0" y2="1"><stop offset="0%" stop-color="#6ea88a"/><stop offset="100%" stop-color="#40705d"/></linearGradient></defs><style>.tick{animation:tk 5s ease-in-out infinite}@keyframes tk{0%,100%{opacity:.4}18%{opacity:1}42%{opacity:.4}}.dash{stroke-dasharray:2 5;animation:d 2s linear infinite}@keyframes d{to{stroke-dashoffset:-7}}.cell{animation:in .9s ease-out both}@keyframes in{from{opacity:0}to{opacity:1}}@media (prefers-reduced-motion:reduce){*{animation:none!important}}</style>
<rect width="1000" height="300" fill="url(#bg)"/>
<rect x="40" y="20" width="215" height="108" fill="#101413" fill-opacity=".7"/>
<rect x="40" y="20" width="3" height="108" fill="url(#spine)"/>
<line x1="40" y1="20" x2="255" y2="20" stroke="#1d2422"/>
<line x1="40" y1="128" x2="255" y2="128" stroke="#1d2422"/>
<text x="64.0" y="84.0" font-family="Segoe UI, ui-sans-serif, -apple-system, Helvetica, Arial, sans-serif" font-size="38" fill="#6ea88a" font-weight="700" letter-spacing="-1.3">38</text>
<text x="64.0" y="106.0" font-family="ui-monospace, SFMono-Regular, Menlo, Consolas, monospace" font-size="9.4" fill="#5a6560" letter-spacing="1.7">PUBLIC REPOS</text>
<rect x="275" y="20" width="215" height="108" fill="#101413" fill-opacity=".7"/>
<rect x="275" y="20" width="3" height="108" fill="url(#spine)"/>
<line x1="275" y1="20" x2="490" y2="20" stroke="#1d2422"/>
<line x1="275" y1="128" x2="490" y2="128" stroke="#1d2422"/>
<text x="299.0" y="84.0" font-family="Segoe UI, ui-sans-serif, -apple-system, Helvetica, Arial, sans-serif" font-size="38" fill="#e6ebe8" font-weight="700" letter-spacing="-1.3">26</text>
<text x="299.0" y="106.0" font-family="ui-monospace, SFMono-Regular, Menlo, Consolas, monospace" font-size="9.4" fill="#5a6560" letter-spacing="1.7">STARS EARNED</text>
<rect x="510" y="20" width="215" height="108" fill="#101413" fill-opacity=".7"/>
<rect x="510" y="20" width="3" height="108" fill="url(#spine)"/>
<line x1="510" y1="20" x2="725" y2="20" stroke="#1d2422"/>
<line x1="510" y1="128" x2="725" y2="128" stroke="#1d2422"/>
<text x="534.0" y="84.0" font-family="Segoe UI, ui-sans-serif, -apple-system, Helvetica, Arial, sans-serif" font-size="38" fill="#e6ebe8" font-weight="700" letter-spacing="-1.3">9</text>
<text x="534.0" y="106.0" font-family="ui-monospace, SFMono-Regular, Menlo, Consolas, monospace" font-size="9.4" fill="#5a6560" letter-spacing="1.7">LANGUAGES</text>
<rect x="745" y="20" width="215" height="108" fill="#101413" fill-opacity=".7"/>
<rect x="745" y="20" width="3" height="108" fill="url(#spine)"/>
<line x1="745" y1="20" x2="960" y2="20" stroke="#1d2422"/>
<line x1="745" y1="128" x2="960" y2="128" stroke="#1d2422"/>
<text x="769.0" y="84.0" font-family="Segoe UI, ui-sans-serif, -apple-system, Helvetica, Arial, sans-serif" font-size="23" fill="#e6ebe8" font-weight="700" letter-spacing="-1.3">22 Aug 2026</text>
<text x="769.0" y="106.0" font-family="ui-monospace, SFMono-Regular, Menlo, Consolas, monospace" font-size="9.4" fill="#5a6560" letter-spacing="1.7">LAST SHIPPED</text>
<rect x="40" y="158" width="920" height="116" fill="#101413" fill-opacity=".7"/>
<rect x="40" y="158" width="3" height="116" fill="url(#spine)"/>
<line x1="40" y1="158" x2="960" y2="158" stroke="#1d2422"/>
<line x1="40" y1="274" x2="960" y2="274" stroke="#1d2422"/>
<text x="78.0" y="190.0" font-family="ui-monospace, SFMono-Regular, Menlo, Consolas, monospace" font-size="9.6" fill="#6ea88a" letter-spacing="1.9">WHAT THE REPOSITORIES ARE WRITTEN IN</text>
<rect x="78.0" y="206" width="350.9" height="12" rx="2" fill="#6ea88a"/>
<rect x="431.9" y="206" width="187.6" height="12" rx="2" fill="#8fb8a6"/>
<rect x="622.5" y="206" width="78.7" height="12" rx="2" fill="#40705d"/>
<rect x="704.2" y="206" width="78.7" height="12" rx="2" fill="#7d8a84"/>
<rect x="785.9" y="206" width="24.2" height="12" rx="2" fill="#5a6560"/>
<rect x="813.1" y="206" width="24.2" height="12" rx="2" fill="#454f4a"/>
<rect x="840.3" y="206" width="78.7" height="12" rx="2" fill="#333b37"/>
<rect x="78.0" y="230" width="8" height="8" rx="2" fill="#6ea88a"/>
<text x="92.0" y="238.0" font-family="ui-monospace, SFMono-Regular, Menlo, Consolas, monospace" font-size="10.5" fill="#93a09a">Python 13</text>
<rect x="164.8" y="230" width="8" height="8" rx="2" fill="#8fb8a6"/>
<text x="178.8" y="238.0" font-family="ui-monospace, SFMono-Regular, Menlo, Consolas, monospace" font-size="10.5" fill="#93a09a">HTML 7</text>
<rect x="232.7" y="230" width="8" height="8" rx="2" fill="#40705d"/>
<text x="246.7" y="238.0" font-family="ui-monospace, SFMono-Regular, Menlo, Consolas, monospace" font-size="10.5" fill="#93a09a">JavaScript 3</text>
<rect x="338.4" y="230" width="8" height="8" rx="2" fill="#7d8a84"/>
<text x="352.4" y="238.0" font-family="ui-monospace, SFMono-Regular, Menlo, Consolas, monospace" font-size="10.5" fill="#93a09a">C++ 3</text>
<rect x="399.9" y="230" width="8" height="8" rx="2" fill="#5a6560"/>
<text x="413.9" y="238.0" font-family="ui-monospace, SFMono-Regular, Menlo, Consolas, monospace" font-size="10.5" fill="#93a09a">TypeScript 1</text>
<rect x="505.7" y="230" width="8" height="8" rx="2" fill="#454f4a"/>
<text x="519.7" y="238.0" font-family="ui-monospace, SFMono-Regular, Menlo, Consolas, monospace" font-size="10.5" fill="#93a09a">PHP 1</text>
<rect x="567.2" y="230" width="8" height="8" rx="2" fill="#333b37"/>
<text x="581.2" y="238.0" font-family="ui-monospace, SFMono-Regular, Menlo, Consolas, monospace" font-size="10.5" fill="#93a09a">Other 3</text>
</svg>
